<svg xmlns="http://www.w3.org/2000/svg" viewBox="0 0 260 260" width="100%" height="100%">
  <rect width="260" height="260" rx="36" fill="#0B0E1B"/>
  <rect width="258" height="258" x="1" y="1" rx="35" fill="none" stroke="#6366f1" stroke-opacity="0.3" stroke-width="2"/>
  <g color="#818CF8">
    
  <!-- Microphone Capsule -->
  <rect x="110" y="55" width="40" height="75" rx="20" fill="currentColor"/>
  <!-- Microphone Stand U-shape -->
  <path d="M92 105 C92 138 168 138 168 105" fill="none" stroke="currentColor" stroke-width="12" stroke-linecap="round"/>
  <!-- Stem -->
  <line x1="130" y1="138" x2="130" y2="180" stroke="currentColor" stroke-width="12" stroke-linecap="round"/>
  <!-- Base -->
  <line x1="100" y1="180" x2="160" y2="180" stroke="currentColor" stroke-width="12" stroke-linecap="round"/>
  <!-- Radio Broadcast Waves Left -->
  <path d="M72 85 C65 96 65 114 72 125" fill="none" stroke="currentColor" stroke-width="8" stroke-linecap="round" opacity="0.75"/>
  <path d="M52 70 C40 88 40 122 52 140" fill="none" stroke="currentColor" stroke-width="8" stroke-linecap="round" opacity="0.45"/>
  <!-- Radio Broadcast Waves Right -->
  <path d="M188 85 C195 96 195 114 188 125" fill="none" stroke="currentColor" stroke-width="8" stroke-linecap="round" opacity="0.75"/>
  <path d="M208 70 C220 88 220 122 208 140" fill="none" stroke="currentColor" stroke-width="8" stroke-linecap="round" opacity="0.45"/>

  </g>
</svg>